<svg xmlns="http://www.w3.org/2000/svg" width="488" height="455" fill="none" viewBox="0 0 488 455">
  <g clip-path="url(#clip0)">
    <path fill="#F2F2F2" d="M229.766 3.8l-14.913 8.137-183.73 100.247-14.914 8.137A31.145 31.145 0 003.8 162.533l136.82 250.759a31.147 31.147 0 0042.212 12.41l.038-.021 213.48-116.479.038-.021a31.148 31.148 0 0012.409-42.212l-136.82-250.76A31.144 31.144 0 00229.766 3.8z"/>
    <path fill="#fff" d="M234.052 11.658l-17.664 9.637-178.23 97.247-17.663 9.637a22.178 22.178 0 00-8.837 30.06l136.82 250.759a22.177 22.177 0 0030.06 8.837l.038-.021 213.479-116.479.039-.021a22.18 22.18 0 008.837-30.06l-136.82-250.76a22.18 22.18 0 00-30.059-8.836z"/>
    <path fill="#F2F2F2" d="M236.996 89.494l-79.619 43.442a5.18 5.18 0 01-7.452-6.009 5.178 5.178 0 012.489-3.087l79.62-43.442a5.18 5.18 0 114.962 9.096zM264.131 94.607l-98.379 53.678a5.184 5.184 0 01-7.452-6.009 5.18 5.18 0 012.489-3.087l98.38-53.678a5.174 5.174 0 015.733.515 5.178 5.178 0 01.781 7.285c-.427.53-.954.97-1.551 1.296h-.001zM124.645 114.853L51.24 154.904a2.48 2.48 0 00-.99 3.368l31.257 57.288a2.482 2.482 0 003.368.99l73.405-40.051a2.482 2.482 0 00.99-3.368l-31.257-57.288a2.482 2.482 0 00-3.368-.99zM276.502 162.183l-107.994 58.924a5.168 5.168 0 01-3.943.422 5.167 5.167 0 01-3.087-2.489 5.181 5.181 0 012.067-7.029l107.994-58.924a5.18 5.18 0 017.452 6.009 5.184 5.184 0 01-2.489 3.087zM303.637 167.296l-126.754 69.16a5.184 5.184 0 01-7.452-6.009 5.177 5.177 0 012.489-3.087l126.754-69.16a5.18 5.18 0 017.029 2.067 5.182 5.182 0 01-2.066 7.029zM127.378 269.364c12.14 0 21.98-9.841 21.98-21.98 0-12.139-9.84-21.98-21.98-21.98-12.139 0-21.979 9.841-21.979 21.98 0 12.139 9.84 21.98 21.979 21.98z"/>
    <path fill="#E6E6E6" d="M456.242 107.121H212.966a31.147 31.147 0 00-31.111 31.111v285.657a31.149 31.149 0 009.122 21.989A31.149 31.149 0 00212.966 455h243.276a31.147 31.147 0 0031.111-31.111V138.232a31.147 31.147 0 00-31.111-31.111z"/>
    <path fill="#fff" d="M456.242 116.077H212.966a22.18 22.18 0 00-22.155 22.155v285.657a22.176 22.176 0 0022.155 22.155h243.276a22.18 22.18 0 0022.155-22.155V138.232a22.18 22.18 0 00-22.155-22.155z"/>
    <path fill="#6C63FF" d="M421.547 185.814h-90.7a5.18 5.18 0 110-10.361h90.7a5.173 5.173 0 013.667 1.515 5.182 5.182 0 01-3.667 8.846zM442.918 203.3H330.847a5.182 5.182 0 010-10.362h112.071a5.181 5.181 0 010 10.362z"/>
    <path fill="#E6E6E6" d="M310.775 154.262h-83.621a2.486 2.486 0 00-2.482 2.483v65.26a2.486 2.486 0 002.482 2.483h83.621a2.485 2.485 0 002.482-2.483v-65.26a2.484 2.484 0 00-2.482-2.483z"/>
    <path fill="#2F2E41" d="M250.092 194.337a22.034 22.034 0 01-5.691 14.918c-3.657 4.013-9.1 6.674-14.593 5.573-5.058-1.014-9.168-5.435-8.656-10.783a8 8 0 013.271-5.876 7.987 7.987 0 016.599-1.297c4.805 1.247 6.719 8.172 2.715 11.423-.96.78-2.341-.584-1.371-1.372 2.647-2.148 1.829-6.849-1.366-8.028-3.719-1.372-7.66 1.58-7.928 5.382-.317 4.509 3.137 7.904 7.373 8.703 4.582.865 9.125-1.48 12.23-4.717a20.015 20.015 0 005.478-13.926.97.97 0 011.939 0z"/>
    <path fill="#6C63FF" d="M269.03 206.666c19.108 0 34.598-15.49 34.598-34.598 0-19.108-15.49-34.599-34.598-34.599-19.108 0-34.599 15.491-34.599 34.599 0 19.108 15.491 34.598 34.599 34.598z"/>
    <path fill="#2F2E41" d="M267.26 186.83l-.036-1.293c2.405-.067 4.526-.217 6.119-1.382a3.96 3.96 0 001.539-2.927 2.264 2.264 0 00-.745-1.871c-1.058-.893-2.76-.604-4-.036l-1.07.491 2.052-14.992 1.28.176-1.745 12.752c1.686-.495 3.248-.282 4.318.621a3.541 3.541 0 011.202 2.904 5.257 5.257 0 01-2.068 3.927c-2.048 1.496-4.708 1.57-6.846 1.63zM285.698 166.095h-6.964v1.293h6.964v-1.293zM263.718 166.095h-6.963v1.293h6.963v-1.293zM249.865 224.488a34.257 34.257 0 018.333-3.834 5.535 5.535 0 01.013-3.044 6.084 6.084 0 012.239-3.124 6.085 6.085 0 013.663-1.162h8.43a6.11 6.11 0 015.915 4.292c.289.992.293 2.044.013 3.038 2.936.9 5.739 2.19 8.333 3.834h-36.939z"/>
    <path fill="#3F3D56" d="M308.661 159.227a7.486 7.486 0 00-2.282-1.855 5.41 5.41 0 00-2.489-.614 5.659 5.659 0 00-3.303 1.112c-2.632 1.862-4.455 5.876-4.455 10.524 0 5.831 2.871 10.667 6.601 11.507.38.085.768.129 1.157.13 4.273 0 7.758-5.217 7.758-11.637 0-3.723-1.171-7.04-2.987-9.167zM237.601 157.592h-.006a5.544 5.544 0 00-2.877-.834 5.41 5.41 0 00-2.489.614 7.486 7.486 0 00-2.282 1.855l-.006.007c-1.81 2.127-2.981 5.443-2.981 9.16 0 5.017 2.121 9.296 5.095 10.932a5.52 5.52 0 002.663.704c.208 0 .415-.012.621-.038h.006c3.982-.479 7.131-5.495 7.131-11.598 0-4.887-2.024-9.083-4.875-10.802z"/>
    <path fill="#3F3D56" d="M232.54 178.214a.972.972 0 00.919-1.28 37.822 37.822 0 014.506-33.222 37.82 37.82 0 0167.967 11.761 37.804 37.804 0 01.375 17.21.973.973 0 00.136.73.973.973 0 001.342.283.97.97 0 00.42-.612 39.767 39.767 0 00-8.765-34.142 39.758 39.758 0 00-67.819 38.612.967.967 0 00.919.66z"/>
    <path fill="#2F2E41" d="M286.41 149.651c1.37 1.87.695 4.39-.749 6.003-1.878 2.098-4.873 2.23-7.474 1.841-2.918-.437-6.014-1.805-8.968-.883-2.519.785-4.315 3.069-6.931 3.643-2.32.509-5.095-.165-5.908-2.638-.391-1.188 1.481-1.697 1.87-.515.526 1.6 2.798 1.568 4.099 1.125 2.086-.711 3.694-2.438 5.744-3.263 2.418-.973 5.04-.534 7.502.02 2.319.522 4.989 1.297 7.3.321 1.71-.722 3.07-2.996 1.84-4.675-.738-1.008.944-1.977 1.675-.979z"/>
    <path fill="#E6E6E6" d="M421.41 268.545H298.387a5.183 5.183 0 01-5.181-5.181 5.172 5.172 0 013.199-4.786 5.166 5.166 0 011.982-.395H421.41a5.181 5.181 0 010 10.362zM442.781 286.03H298.387a5.173 5.173 0 01-3.667-1.515 5.182 5.182 0 013.667-8.846h144.394a5.178 5.178 0 014.792 7.164 5.195 5.195 0 01-1.124 1.682 5.178 5.178 0 01-3.668 1.515zM421.41 331.39H298.387a5.181 5.181 0 010-10.362H421.41a5.18 5.18 0 110 10.362zM442.781 348.876H298.387a5.18 5.18 0 110-10.362h144.394a5.183 5.183 0 015.181 5.181 5.183 5.183 0 01-5.181 5.181zM249.697 293.892c12.139 0 21.98-9.84 21.98-21.98 0-12.139-9.841-21.979-21.98-21.979-12.139 0-21.98 9.84-21.98 21.979 0 12.14 9.841 21.98 21.98 21.98zM249.697 357.246c12.139 0 21.98-9.841 21.98-21.98 0-12.139-9.841-21.98-21.98-21.98-12.139 0-21.98 9.841-21.98 21.98 0 12.139 9.841 21.98 21.98 21.98zM421.41 394.743H298.387a5.177 5.177 0 01-5.181-5.18 5.182 5.182 0 015.181-5.181H421.41a5.183 5.183 0 015.181 5.181 5.183 5.183 0 01-5.181 5.18zM442.781 412.229H298.387a5.178 5.178 0 01-3.663-1.518 5.178 5.178 0 010-7.326 5.178 5.178 0 013.663-1.518h144.394a5.18 5.18 0 110 10.362zM249.697 420.599c12.139 0 21.98-9.841 21.98-21.98 0-12.139-9.841-21.98-21.98-21.98-12.139 0-21.98 9.841-21.98 21.98 0 12.139 9.841 21.98 21.98 21.98z"/>
  </g>
  <defs>
    <clipPath id="clip0">
      <path fill="#fff" d="M0 0h487.353v455H0z"/>
    </clipPath>
  </defs>
</svg>
