<svg xmlns="http://www.w3.org/2000/svg" width="444" height="455" fill="none" viewBox="0 0 444 455">
  <g clip-path="url(#clip0)">
    <path fill="#3F3D56" d="M218.737 108.124h-2.411V39.638c0-10.512-4.026-20.594-11.193-28.028C197.966 4.177 188.246 0 178.111 0H38.216C28.081 0 18.361 4.178 11.194 11.61 4.027 19.044.001 29.126.001 39.638v375.723c0 10.512 4.026 20.594 11.193 28.027 7.167 7.434 16.887 11.61 27.022 11.61H178.11c10.135 0 19.855-4.176 27.022-11.61 7.167-7.433 11.193-17.515 11.193-28.027V156.874h2.411l.001-48.75z"/>
    <path fill="#fff" d="M179.653 10.313h-18.261a14.54 14.54 0 01.934 6.747 14.392 14.392 0 01-2.234 6.41 13.748 13.748 0 01-4.878 4.568 13.177 13.177 0 01-6.376 1.652H68.694c-2.223 0-4.413-.568-6.375-1.652a13.747 13.747 0 01-4.878-4.568 14.398 14.398 0 01-2.234-6.41 14.542 14.542 0 01.933-6.746H39.082c-7.57 0-14.828 3.12-20.18 8.67-5.353 5.552-8.36 13.081-8.36 20.932v375.17c0 7.851 3.007 15.38 8.36 20.931 5.352 5.552 12.61 8.67 20.18 8.67h140.565c7.57 0 14.829-3.118 20.181-8.67 5.352-5.551 8.359-13.08 8.359-20.931V39.914c0-7.85-3.007-15.38-8.359-20.931-5.352-5.552-12.611-8.67-20.181-8.67h.006z"/>
    <path fill="#E6E6E6" d="M190.31 84.08H28.427V370.92H190.31V84.081zM109.609 423.722c8.655 0 15.672-7.278 15.672-16.255 0-8.978-7.017-16.255-15.672-16.255-8.656 0-15.672 7.277-15.672 16.255 0 8.977 7.016 16.255 15.672 16.255z"/>
    <path fill="#FFB9B9" d="M184.523 401.623l-1.79 17.951 10.145-1.238 1.193-14.855-9.548-1.858z"/>
    <path fill="#2F2E41" d="M157.669 265.445s-51.922 51.995-19.098 68.089h10.145s22.081-37.761 32.824-37.139l2.984 35.901-1.791 72.423 13.13.619s7.758-36.521 7.161-56.948l13.727-75.517-59.082-7.428z"/>
    <path fill="#2F2E41" d="M141.553 331.058l7.162 2.476s28.049-6.809 29.837-6.189l5.553-.04-.181-14.817h-23.869l-18.502 18.57zM194.071 415.861s-10.742-4.952-12.532 0c-1.791 4.952-1.194 19.188-1.194 19.188a14.229 14.229 0 011.194 9.285c-1.194 4.952 4.774 7.428 12.532 4.952 7.759-2.476 7.759-8.666 7.759-8.666l-7.759-24.759zM203.023 311.247s8.355-4.952 7.758 2.476a50.377 50.377 0 01-3.581 14.237s7.759 21.046 0 22.903c-7.758 1.857-13.726-2.476-13.726-5.571 0-3.096 9.549-34.045 9.549-34.045z"/>
    <path fill="#FFB9B9" d="M176.764 141.646l1.194 23.522 10.145 9.284 11.34-16.713v-16.712l-22.679.619z"/>
    <path fill="#6C63FF" d="M184.522 165.168l-6.831-5.266-4.507 7.123-20.291 12.378 11.935 32.188.596 31.569s-22.081 23.521-8.951 26.617c13.129 3.095 59.679 9.903 62.066 4.333 2.387-5.571-2.984-63.138-2.984-63.138l1.791-48.9-17.903-6.714-14.921 9.81z"/>
    <path fill="#FFB9B9" d="M148.118 204.372s-4.774 35.073 4.178 35.073a39.807 39.807 0 0015.516-3.095l-7.161-19.189 2.984-12.999-15.517.21z"/>
    <path fill="#FFB9B9" d="M161.844 235.114l6.565 1.238s19.098-12.379 20.291-12.999c1.194-.62-19.097-11.142-19.097-11.142l-13.727 5.571 5.968 17.332z"/>
    <path fill="#000" d="M169.603 212.211l-8.62 3.498 2.652-11.545-15.516.207s-4.775 35.073 4.178 35.073a39.81 39.81 0 0015.516-3.095l-.045-.121.642.121s19.097-12.378 20.291-12.998c1.193-.621-19.098-11.14-19.098-11.14z" opacity=".1"/>
    <path fill="#FFB9B9" d="M190.571 153.383c9.411 0 17.041-7.913 17.041-17.675s-7.63-17.676-17.041-17.676c-9.412 0-17.042 7.914-17.042 17.676 0 9.762 7.63 17.675 17.042 17.675z"/>
    <path fill="#2F2E41" d="M175.504 115.767l-3.33-1.382s6.962-7.95 16.648-7.259l-2.724-3.11s6.659-2.766 12.713 4.493c3.182 3.813 6.864 8.3 9.162 13.353h3.566l-1.489 3.398 5.208 3.4-5.347-.61a19.466 19.466 0 01-.506 8.802l.144 2.689s-6.197-9.945-6.197-11.328v3.457s-3.33-3.111-3.33-5.185l-1.816 2.42-.911-3.808-11.199 3.802 1.816-3.111-6.962 1.037 2.724-3.802s-7.869 4.493-8.172 8.296c-.304 3.802-4.238 8.641-4.238 8.641l-1.816-3.457s-2.722-15.551 6.056-20.736z"/>
    <path fill="#FFB9B9" d="M205.41 193.642c-3.012 3.859-4.692 8.653-4.774 13.617l-31.63-1.237s-8.355-1.238-8.355 4.952v6.189s4.177-1.857 6.564 0c2.387 1.857 28.05 17.951 40.582 11.761 12.533-6.19 15.517-30.33 15.517-30.33s-11.339-9.905-17.904-4.952z"/>
    <path fill="#6C63FF" d="M212.575 162.691l4.774-.618s9.549 1.237 8.355 20.426c-1.193 19.189-1.79 20.427-1.79 20.427s-12.533-11.761-21.485-6.189l10.146-34.046zM155.28 179.407h-2.387c-3.093 4.052-4.775 9.068-4.775 14.236a70.908 70.908 0 01-2.088 16.404l18.799-3.405-9.549-27.235z"/>
    <g>
      <path fill="#E6E6E6" d="M443.481 84.064H270.19v35.487h173.291V84.064z"/>
      <path fill="#fff" d="M273.885 115.72h165.902V87.899H273.885v27.821z"/>
      <path fill="#6C63FF" d="M288.408 90.978c2.021 0 3.997.621 5.678 1.786a10.534 10.534 0 013.764 4.757c.773 1.937.976 4.069.581 6.125a10.725 10.725 0 01-2.797 5.427 10.106 10.106 0 01-5.233 2.901 9.88 9.88 0 01-5.904-.603 10.307 10.307 0 01-4.587-3.904 10.883 10.883 0 01-1.722-5.889c0-2.812 1.076-5.508 2.993-7.496 1.917-1.987 4.516-3.104 7.227-3.104z"/>
      <path fill="#E6E6E6" d="M413.71 97.43H312.846v2.304H413.71V97.43zM413.71 103.421H312.846v2.304H413.71v-2.304z"/>
    </g>
    <g>
      <path fill="#E6E6E6" d="M443.481 134.705H270.19v35.486h173.291v-35.486z"/>
      <path fill="#fff" d="M273.885 166.36h165.902v-27.821H273.885v27.821z"/>
      <path fill="#6C63FF" d="M288.408 162.818c5.644 0 10.22-4.745 10.22-10.6 0-5.854-4.576-10.6-10.22-10.6-5.645 0-10.22 4.746-10.22 10.6 0 5.855 4.575 10.6 10.22 10.6z"/>
      <path fill="#E6E6E6" d="M413.71 148.07H312.846v2.305H413.71v-2.305zM413.71 154.061H312.846v2.305H413.71v-2.305z"/>
    </g>
    <g>
      <path fill="#E6E6E6" d="M443.481 185.345H270.19v35.487h173.291v-35.487z"/>
      <path fill="#fff" d="M273.885 217h165.902v-27.821H273.885V217z"/>
      <path fill="#6C63FF" d="M288.408 213.459c5.644 0 10.22-4.746 10.22-10.6 0-5.855-4.576-10.6-10.22-10.6-5.645 0-10.22 4.745-10.22 10.6 0 5.854 4.575 10.6 10.22 10.6z"/>
      <path fill="#E6E6E6" d="M413.71 198.711H312.846v2.304H413.71v-2.304zM413.71 204.702H312.846v2.304H413.71v-2.304z"/>
    </g>
  </g>
  <defs>
    <clipPath id="clip0">
      <path fill="#fff" d="M0 0h443.481v455H0z"/>
    </clipPath>
  </defs>
</svg>
