<svg xmlns="http://www.w3.org/2000/svg" width="417" height="307" fill="none" viewBox="0 0 417 307">
  <g clip-path="url(#clip0)">
    <path fill="#E6E6E6" d="M45.4 306.085c24.988 0 45.244-4.207 45.244-9.396 0-5.189-20.256-9.395-45.244-9.395S.155 291.5.155 296.689c0 5.189 20.257 9.396 45.245 9.396z"/>
    <path fill="#2F2E41" d="M25.865 82.069c8.614 0 15.598-6.542 15.598-14.611 0-8.07-6.984-14.61-15.598-14.61-8.615 0-15.598 6.54-15.598 14.61s6.983 14.61 15.598 14.61z"/>
    <path fill="#FFB8B8" d="M71.277 158.479l3.949 5.529s18.954 3.949 11.846 9.872c-7.108 5.923-17.375-5.528-17.375-5.528l-5.528-7.108 7.108-2.765z"/>
    <path fill="#E6E6E6" d="M50.743 95.692s5.133 0 6.318 7.108c1.185 7.108 2.37 30.801 2.37 30.801s16.584 21.719 13.82 24.483c-2.764 2.765-5.923 7.898-7.898 7.108-1.974-.789-18.954-24.088-18.954-24.088l4.344-45.412z"/>
    <path fill="#FFB8B8" d="M34.947 75.553s.395 15.4 5.134 16.19c4.738.79 3.159 5.924 3.159 5.924s-15.4 9.082-25.668 0l-1.974-4.739s7.108-5.133 3.949-12.242l15.4-5.133z"/>
    <path fill="#2F2E41" d="M61.405 170.326s23.298 43.438 14.61 56.864c-8.687 13.427-21.718 41.069-23.693 41.069-1.974 0-13.031-5.529-12.241-9.083.79-3.554 12.636-30.011 15.795-32.381 3.16-2.369 1.58-8.687 1.185-9.082-.395-.395-13.426-21.324-13.426-21.324s.395 33.171-1.185 38.304c-1.58 5.134.395 41.859-1.58 43.438-1.974 1.58-11.056 4.344-12.636 1.975-1.58-2.37-6.318-38.305-3.159-46.597l-5.923-56.865 42.253-6.318z"/>
    <path fill="#2F2E41" d="M40.08 275.761l9.873 18.165s14.216 10.267 4.344 11.846c-9.872 1.58-15.796-2.369-15.796-2.369l-8.687-6.318V278.92l10.267-3.159z"/>
    <path fill="#2F2E41" d="M53.507 265.493l-5.134 12.241s-1.974 5.134 0 6.318c1.975 1.185 7.503 8.293 3.95 9.083a11.54 11.54 0 01-2.17.215 21.932 21.932 0 01-15.953-6.491l-3.202-3.201s10.966-25.252 10.814-25.065c-.152.187 11.695 6.9 11.695 6.9z"/>
    <path fill="#FFB8B8" d="M25.075 85.03c7.415 0 13.426-6.01 13.426-13.426 0-7.415-6.01-13.426-13.426-13.426-7.415 0-13.426 6.011-13.426 13.426S17.66 85.03 25.075 85.03z"/>
    <path fill="#E6E6E6" d="M17.375 90.362l4.146 4.146s12.637 4.738 18.56 0c0 0-2.172-4.541-2.172-4.146 0 .394 17.178 2.961 18.757 10.069 1.58 7.108-1.185 19.35-1.185 19.35s11.057 52.125 6.713 53.309c-4.343 1.185-45.017 11.057-44.622 3.554.395-7.503-3.159-38.304-3.159-38.304L.593 111.883s1.974-8.688 6.712-11.452c4.739-2.764 10.07-10.07 10.07-10.07z"/>
    <path fill="#FFB8B8" d="M34.947 167.562l5.134 3.159s19.744 13.426 9.477 15.795c-10.267 2.37-16.19-9.477-16.19-9.477l-3.95-4.739 5.53-4.738z"/>
    <path fill="#000" d="M5.726 109.513l-3.554 3.554s-2.37 33.171 2.37 39.884c4.738 6.713 26.456 24.878 27.641 23.693 1.185-1.185 8.688-7.108 7.108-7.898-1.58-.789-22.58-22.733-22.58-22.733l1.651-30.576-12.636-5.924z" opacity=".1"/>
    <path fill="#E6E6E6" d="M4.146 108.329l-3.554 3.554s-2.369 33.17 2.37 39.883c4.738 6.714 26.457 24.878 27.642 23.694 1.184-1.185 8.687-7.108 7.108-7.898-1.58-.79-22.581-22.734-22.581-22.734l1.652-30.576-12.637-5.923z"/>
    <path fill="#2F2E41" d="M30.628 52.533s4.564-1.66 10.787 1.867l-3.319.83s4.979.415 5.601 7.053h-2.282s1.452 5.81 0 7.469l-.933-1.764-2.697 5.394-.622-2.697-1.245.415-.83-4.356s-2.074 3.112-3.734 3.319v-2.697s-4.564 5.186-6.016 4.979l2.075-2.904-2.905.622 1.245-2.075-7.468 2.075 1.66-2.075-5.187 1.66-2.49 1.037s-3.526-8.09 1.453-13.692c4.979-5.6 12.24-6.845 16.907-4.46z"/>
    <path fill="#E6E6E6" d="M406.549 32.398H104.197V226.04h302.352V32.398z"/>
    <path fill="#fff" d="M397.904 56.685H112.842v157.9h285.062v-157.9z"/>
    <path fill="#00BFA6" d="M406.421 32.227H104.067v12.845h302.354V32.227z"/>
    <path fill="#fff" d="M113.613 41.174a2.38 2.38 0 10-.001-4.76 2.38 2.38 0 00.001 4.76zM122.649 41.174a2.38 2.38 0 100-4.761 2.38 2.38 0 000 4.761zM131.686 41.174a2.38 2.38 0 100-4.761 2.38 2.38 0 000 4.761z"/>
    <path fill="#E6E6E6" d="M211.991 73.069h-73.247v125.132h73.247V73.069z"/>
    <path fill="#00BFA6" d="M285.675 73.069h-61.04v34.444h61.04V73.069z"/>
    <path fill="#E6E6E6" d="M285.675 117.105h-61.04v37.06h61.04v-37.06zM285.675 163.757h-61.04v34.444h61.04v-34.444zM372.003 73.069h-73.247V127.6h73.247V73.069z"/>
    <path fill="#00BFA6" d="M372.003 143.669h-73.247v54.532h73.247v-54.532z"/>
    <path fill="#3F3D56" d="M255.784 88.639l-.956-.254L275.693 9.89h121.031v.989h-120.27l-20.67 77.76z"/>
    <path fill="#3F3D56" d="M406.616 20.768A10.384 10.384 0 11417 10.384a10.394 10.394 0 01-10.384 10.384zm0-19.779a9.393 9.393 0 00-9.214 11.228 9.39 9.39 0 007.381 7.382 9.393 9.393 0 008.473-15.855 9.404 9.404 0 00-6.64-2.755z"/>
    <path fill="#00BFA6" d="M406.616 14.34a3.956 3.956 0 10-.001-7.911 3.956 3.956 0 00.001 7.91z"/>
    <path fill="#3F3D56" d="M316.012 249.218H194.98v-.989h120.272l20.67-77.76.956.254-20.866 78.495z"/>
    <path fill="#3F3D56" d="M185.089 259.107a10.384 10.384 0 1110.385-10.384 10.405 10.405 0 01-3.045 7.34 10.4 10.4 0 01-7.34 3.044zm0-19.779a9.389 9.389 0 00-5.219 1.584 9.4 9.4 0 00-1.424 14.455 9.391 9.391 0 0010.239 2.036 9.395 9.395 0 005.8-8.68 9.41 9.41 0 00-9.396-9.395z"/>
    <path fill="#00BFA6" d="M185.091 252.68a3.956 3.956 0 10-.002-7.912 3.956 3.956 0 00.002 7.912z"/>
  </g>
  <defs>
    <clipPath id="clip0">
      <path fill="#fff" d="M0 0h417v306.145H0z"/>
    </clipPath>
  </defs>
</svg>
